# xmcd
#
# Track frame offsets:
#	150
#	18280
#	38257
#	58922
#	75312
#	95200
#	114720
#	135190
#	151760
#	174382
#
# Disc length: 2589 seconds
# Revision: 4
# Processed by: cddbd v1.5.2PL0 Copyright (c) Steve Scherf et al.
# Submitted via: dBpowerAMP V12.0
#
DISCID=6b0a1b0a
DTITLE=Reverend Gary Davis - Say No To The Devil
DYEAR=1961
DGENRE=Blues
TTITLE0=Say No to the Devil
TTITLE1=Time Is Drawing Near
TTITLE2=Hold on to God's Unchanging Hand
TTITLE3=Bad Company Brought Me Here
TTITLE4=I Decided To to Down
TTITLE5=Lord, I Looked Down The Road
TTITLE6=Little Bitty Baby
TTITLE7=No One Can Do Me Like Jesus
TTITLE8=Lost Boy In The Wilderness
TTITLE9=Tryin' To Get To Heaven In Due Time
EXTD=
EXTT0=
EXTT1=
EXTT2=
EXTT3=
EXTT4=
EXTT5=
EXTT6=
EXTT7=
EXTT8=
EXTT9=
PLAYORDER=
